PathFileType	4	(X/Y/Z)	Patient4_TMGait_0pt5_02_left_25.trc.trc
DataRate	CameraRate	NumFrames	NumMarkers	Units	OrigDataRate	OrigDataStartFrame	OrigNumFrames
74.866310160428	74.866310160428	6	33	mm	74.866310160428	71	       141
Frame#	Time	Sacral			L.Shoulder			Chest			R.Shoulder			Neck			R.ASIS			L.ASIS			R.Thigh.Superior			R.Thigh.Lateral			R.Thigh.Inferior			R.Patella			L.Thigh.Superior			L.Thigh.Lateral			L.Thigh.Inferior			L.Patella			L.Shank.Superior			L.Shank.Lateral			L.Shank.Inferior			R.Shank.Superior			R.Shank.Lateral			R.Shank.Inferior			R.Heel			R.Midfoot.Superior			R.Midfoot.Lateral			R.Toe			L.Heel			L.Midfoot.Lateral			L.Midfoot.Superior			L.Toe			L.Elbow			L.Wrist			R.Elbow			R.Wrist			
		X1	Y1	Z1	X2	Y2	Z2	X3	Y3	Z3	X4	Y4	Z4	X5	Y5	Z5	X6	Y6	Z6	X7	Y7	Z7	X8	Y8	Z8	X9	Y9	Z9	X10	Y10	Z10	X11	Y11	Z11	X12	Y12	Z12	X13	Y13	Z13	X14	Y14	Z14	X15	Y15	Z15	X16	Y16	Z16	X17	Y17	Z17	X18	Y18	Z18	X19	Y19	Z19	X20	Y20	Z20	X21	Y21	Z21	X22	Y22	Z22	X23	Y23	Z23	X24	Y24	Z24	X25	Y25	Z25	X26	Y26	Z26	X27	Y27	Z27	X28	Y28	Z28	X29	Y29	Z29	X30	Y30	Z30	X31	Y31	Z31	X32	Y32	Z32	X33	Y33	Z33	

71	32.795000000000	552.731982931873	1002.190601607164	429.876219079358	744.987348385356	1416.242612668871	233.904820543398	824.238726255663	1364.164898765085	413.554101618957	716.780114443074	1454.655838490518	566.830133807732	723.930013559365	1491.479067025472	376.332168101332	767.445406059653	948.150379615287	570.296601215427	781.620637619475	959.551705234964	294.557200028186	845.861606305309	773.529815758989	553.314462654784	798.011208659940	649.703060959265	622.010798857565	893.185217327294	613.099565472106	549.388644236004	926.726123754027	529.835791538021	567.362647674539	788.277781755673	737.040267714627	326.670680709789	676.406469280436	637.557243775618	264.051685052065	738.838645979053	548.056442032022	330.273378431947	724.606712215697	480.659580469901	341.145923432336	694.556672132695	413.175332307410	334.308623576008	595.729232700416	304.254247272097	287.012641656891	640.440917644878	192.085231462187	362.446653185384	912.964727127915	443.310687515085	574.372619656872	859.525543175776	328.160448705867	633.585271344292	934.184887413302	244.386514100316	586.469212144186	847.234352825238	56.920031559446	551.569061109057	1006.729984577267	130.553567663601	599.297974722169	928.649152140620	53.397549715139	628.860767277479	1130.810767834480	94.646058672846	631.273788409597	505.600858783448	39.369900440401	413.006588041562	578.686251873874	34.674172620733	331.740370503055	662.938180414170	95.341690633089	355.899809947614	790.493448281413	42.328114873669	328.457384589606	805.526692499485	1070.114329115445	116.994552268939	1046.861316019747	979.518413534202	138.439146736077	557.713452412458	1162.546275286137	697.117745468492	521.114435662372	907.851252175688	741.875100009423	
72	32.808357142857	553.449645731327	1000.980581790743	431.609301513761	743.933766479252	1415.617053949211	235.569149781297	823.791946877277	1363.600569275717	414.968904546631	716.473380161415	1453.554045193349	568.644147052686	722.937443326490	1490.556483645767	378.214247567378	768.619278020276	946.899860827543	571.487529128868	782.113059397925	958.716493838390	295.592171160696	846.393399666681	771.099001717063	554.748964081824	796.753434376957	647.206043741194	622.445322889159	891.982481360208	610.334970367056	550.225802953114	924.641506379745	527.517042406711	567.232998052344	786.970507082556	735.734813289263	327.498984511015	674.007967073264	637.223572571498	264.787573486460	735.499983925501	547.111246464617	330.948613351675	720.675921663381	479.722861146482	341.710971318087	690.157633639896	412.566737907392	334.754878442632	590.487463930352	304.384245239702	287.387859063956	634.406183356885	191.768968020435	362.603910455040	911.363371558512	440.899474324350	574.023216933717	858.538508337571	325.425338870003	632.947871575806	933.500392548870	242.139789605280	585.587050826314	847.009560345823	55.165830378090	550.371870385995	1006.752447988557	128.099868377084	598.024549885612	928.406350017794	51.343558415944	627.592020787578	1130.631140234518	91.625246772780	629.805931980489	498.871045488636	39.385490439964	412.998254259022	571.940431982325	34.669786697160	331.756531873892	656.209424549083	95.295961664856	355.942053720756	783.733776306756	42.252117959210	328.484222403161	804.105022361853	1069.053945321747	119.445802214171	1045.148238502575	977.528795688097	141.561742319298	558.502115604602	1160.875765679356	698.822889934306	524.024179249483	905.683345396064	742.879677023785	
73	32.821714285714	554.348886137130	999.690195687384	433.584285521749	742.855506557749	1414.948181303346	237.486727066449	823.444238288085	1362.976514033087	416.580063515481	716.300127480500	1452.285323177129	570.749466643658	721.976653458648	1489.537807272851	380.385743457482	770.060422018698	945.444270290941	572.720708147242	782.680533028605	957.768207707550	296.685512480379	847.195853046360	768.511957461870	555.984242754529	795.793247812137	644.615232986236	622.667642727471	890.948370150408	607.482278843891	550.693919881783	922.611249246432	524.893002321172	566.742406175959	785.876211298459	734.324523322486	328.264780737801	671.830120182864	636.770086389163	265.610782497132	732.501799421778	546.058589434829	331.627113977966	717.096123918848	478.634391458856	342.336578207409	686.053074412884	411.804117093711	335.271440514798	585.453508414276	304.456416152251	287.829105442200	628.464606301765	191.362064463114	362.807702749373	909.390333452000	437.988455427036	573.367283131203	856.541780451434	322.484550009098	631.998902050718	931.251451235531	239.279064916533	584.306720952204	844.110716567178	53.319331707866	548.837842557544	1004.434622235787	124.940775595882	596.371920193843	925.435011579523	49.040941395776	626.068124560058	1127.929316363761	87.355878027097	628.075147698797	492.138837788078	39.356889037334	412.989890335072	565.193001384023	34.649041888670	331.774866411519	649.464335468959	95.240989482639	356.004670643168	776.972271598082	42.168164275316	328.508932161466	802.137568177947	1067.878633383310	121.958377786343	1042.698509042702	974.727285979587	144.630590434823	559.914083360792	1158.692220975805	700.830215571421	528.340343365782	902.882014937246	743.947094711773	
74	32.835071428571	555.421940020365	998.347263862806	435.787144282277	741.764776927754	1414.240143492205	239.663354687934	823.215130160194	1362.300933151698	418.388816474660	716.287593679086	1450.866895173952	573.145804765701	721.077803558777	1488.441702214472	382.844246497907	771.761102458447	943.803145710903	573.988427149679	783.317615454818	956.711860126894	297.841711264485	848.219116047257	765.774278269387	556.976499126552	795.089206971014	641.975111812589	622.678248479670	890.018071913775	604.573490362509	550.754554877449	920.572094259601	522.012455169296	565.850097786917	785.019138867640	732.816990975727	328.992791713894	669.907431849662	636.189833424099	266.541515921433	729.875834823073	544.896448749401	332.341177001806	713.904496527894	477.382466709270	343.052628947457	682.266243907533	410.876713911939	335.887355422838	580.644169864003	304.472235516320	288.361440584726	622.626560705345	190.864162420144	363.078286774765	907.080111317409	434.666234617996	572.420299179924	853.705773455118	319.370157339351	630.802397295917	927.697348116247	235.903120371519	582.683785637702	838.979449920364	51.368635816163	547.111885929844	1000.155168581434	121.248248489021	594.395328043064	920.218745907321	46.583210815772	624.396605065696	1123.151523573846	82.162568159871	626.079174934051	485.402398808343	39.288138780111	412.984830501026	558.446485547694	34.614827049345	331.800621486073	642.706918325190	95.179546883989	356.094850472748	770.213806646733	42.069659558990	328.530584897188	799.653274249897	1066.601213586298	124.522249508221	1039.507924418905	971.084951277146	147.600231905041	561.943707256703	1156.045967500989	703.138088243702	534.002349393626	899.528441912080	745.077178971374	
75	32.848428571429	556.650059982692	996.994122141324	438.190327597963	740.676719549669	1413.520307126045	242.102973976914	823.122180706892	1361.595906222300	420.393441440263	716.466373570798	1449.329382555927	575.830629801026	720.275396842108	1487.307199762567	385.589557797827	773.699564039178	942.024880804030	575.281758318654	784.015396871842	955.567472556392	299.065378873957	849.415201652567	762.924399923013	557.699209602809	794.606742672899	639.360361590831	622.497976287688	889.139253475189	601.671257207577	550.400175205119	918.477080076010	518.958642181714	564.558542314651	784.416835039406	731.236459470966	329.717152597592	668.270463558849	635.488452378706	267.600285001908	727.648191868152	543.635579644805	333.129461892975	711.139475251615	475.967100331863	343.883982196510	678.817079197497	409.789972110768	336.627406112434	576.071654316524	304.449297275587	289.008496253843	616.902380961032	190.288890801450	363.430685916849	904.490652539792	431.072745753646	571.228594047169	850.242308278129	316.164870138185	629.446346648595	923.150569908546	232.178582801987	580.804943391192	832.144810708857	49.363117318984	545.343179273149	994.360026486905	117.258384999581	592.183077890236	913.318417967110	44.112617283013	622.693933733873	1116.808131851035	76.452052825662	623.861602320437	478.660940169978	39.200672576473	412.985351099644	551.705548393311	34.576159271491	331.839324386565	635.948480090764	95.117274475835	356.215883169448	763.466448302176	41.947807368490	328.548182900307	796.685331091071	1065.256518542953	127.139946761013	1035.552924733289	966.580001089192	150.433979337144	564.596652533715	1152.997004504796	705.738943933608	540.945784671754	895.718282455428	746.270737844429	
76	32.861785714286	558.002988049869	995.687512003099	440.754310883832	739.611142001771	1412.840821592378	244.805692394822	823.179131041823	1360.899122358574	422.588966324313	716.864659791348	1447.718868938898	578.797151164139	719.606494737665	1486.193414732846	388.621299410310	775.838002281219	940.187403287572	576.592632518274	784.759981321708	954.373631457102	300.361331557167	850.741280692883	760.039383057459	558.146364185251	794.327376898624	636.874483968247	622.168440532595	888.282702538492	598.870410203461	549.658049948107	916.310457901719	515.850133812242	562.920266475577	784.080377123962	729.627226032677	330.478263325029	666.948987282406	634.685643106952	268.805610471218	725.847945727181	542.301502741947	334.031060737028	708.849179902431	474.401280890628	344.844750441600	675.729802522136	408.566364287528	337.507607379257	571.750232507387	304.424012295097	289.788836983892	611.306832332632	189.665779467468	363.871101236697	901.705632011627	427.389544389890	569.867725686653	846.390628331840	312.995412646475	628.039655008800	917.950567466845	228.320567732295	578.783378932576	824.173054196570	47.395645102532	543.669032420524	987.520282582782	113.239650764588	589.853638629777	905.318272038425	41.790534481574	621.075244763606	1109.426649462849	70.665445282621	621.518190175810	471.916548967718	39.138866502440	412.992002807502	544.977841596449	34.550486396555	331.895851327864	629.210239041465	95.062952786194	356.364993993959	756.741954212909	41.792102584967	328.560555453753	793.270198613880	1063.902815717733	129.826356870593	1030.787279778383	961.202867694448	153.105335595695	567.887863922729	1149.614758637020	708.617518689845	549.106404989851	891.560655407389	747.531226953015	
